<?xml version="1.0" encoding="utf-8"?>
<!-- Generator: Adobe Illustrator 25.4.1, SVG Export Plug-In . SVG Version: 6.00 Build 0)  -->
<svg version="1.1" id="Layer_1" xmlns="http://www.w3.org/2000/svg" xmlns:xlink="http://www.w3.org/1999/xlink" x="0px" y="0px"
	 viewBox="0 0 122 96" style="enable-background:new 0 0 122 96;" xml:space="preserve">
<style type="text/css">
	.st0{fill:#FFFFFF;}
	.st1{fill:#CACCCE;}
	.st2{opacity:0.5;fill:#CACCCE;enable-background:new    ;}
	.st3{display:none;}
	.st4{display:inline;}
</style>
<rect x="2" class="st0" width="118" height="96"/>
<g>
	<rect x="12.3" y="10.4" class="st1" width="96.1" height="32.1"/>
</g>
<g>
	<path class="st2" d="M53.9,79.8H12.9c-0.3,0-0.5-0.2-0.5-0.5l0,0c0-0.3,0.2-0.5,0.5-0.5h41.1c0.3,0,0.5,0.2,0.5,0.5l0,0
		C54.4,79.5,54.2,79.8,53.9,79.8z"/>
	<path class="st2" d="M53.9,84.8H12.9c-0.3,0-0.5-0.2-0.5-0.5l0,0c0-0.3,0.2-0.5,0.5-0.5h41.1c0.3,0,0.5,0.2,0.5,0.5l0,0
		C54.4,84.5,54.2,84.8,53.9,84.8z"/>
	<path class="st2" d="M53.9,89.8H12.9c-0.3,0-0.5-0.2-0.5-0.5l0,0c0-0.3,0.2-0.5,0.5-0.5h41.1c0.3,0,0.5,0.2,0.5,0.5l0,0
		C54.4,89.5,54.2,89.8,53.9,89.8z"/>
	<path class="st2" d="M107.9,79.8H66.8c-0.3,0-0.5-0.2-0.5-0.5l0,0c0-0.3,0.2-0.5,0.5-0.5h41.1c0.3,0,0.5,0.2,0.5,0.5l0,0
		C108.4,79.5,108.2,79.8,107.9,79.8z"/>
	<path class="st2" d="M107.9,84.8H66.8c-0.3,0-0.5-0.2-0.5-0.5l0,0c0-0.3,0.2-0.5,0.5-0.5h41.1c0.3,0,0.5,0.2,0.5,0.5l0,0
		C108.4,84.5,108.2,84.8,107.9,84.8z"/>
	<path class="st2" d="M107.9,89.8H66.8c-0.3,0-0.5-0.2-0.5-0.5l0,0c0-0.3,0.2-0.5,0.5-0.5h41.1c0.3,0,0.5,0.2,0.5,0.5l0,0
		C108.4,89.5,108.2,89.8,107.9,89.8z"/>
</g>
<g>
	<path class="st2" d="M107.9,49.6H12.8c-0.3,0-0.5-0.2-0.5-0.5l0,0c0-0.3,0.2-0.5,0.5-0.5h95.1c0.3,0,0.5,0.2,0.5,0.5l0,0
		C108.4,49.4,108.2,49.6,107.9,49.6z"/>
	<path class="st2" d="M107.9,54.6H12.8c-0.3,0-0.5-0.2-0.5-0.5v0c0-0.3,0.2-0.5,0.5-0.5h95.1c0.3,0,0.5,0.2,0.5,0.5v0
		C108.4,54.4,108.2,54.6,107.9,54.6z"/>
	<path class="st2" d="M107.9,59.6H12.8c-0.3,0-0.5-0.2-0.5-0.5l0,0c0-0.3,0.2-0.5,0.5-0.5h95.1c0.3,0,0.5,0.2,0.5,0.5l0,0
		C108.4,59.4,108.2,59.6,107.9,59.6z"/>
	<path class="st2" d="M108,64.7H12.9c-0.3,0-0.5-0.2-0.5-0.5l0,0c0-0.3,0.2-0.5,0.5-0.5H108c0.3,0,0.5,0.2,0.5,0.5l0,0
		C108.5,64.5,108.3,64.7,108,64.7z"/>
	<path class="st2" d="M108,69.7H12.9c-0.3,0-0.5-0.2-0.5-0.5l0,0c0-0.3,0.2-0.5,0.5-0.5H108c0.3,0,0.5,0.2,0.5,0.5l0,0
		C108.5,69.5,108.3,69.7,108,69.7z"/>
	<path class="st2" d="M108,74.7H12.9c-0.3,0-0.5-0.2-0.5-0.5l0,0c0-0.3,0.2-0.5,0.5-0.5H108c0.3,0,0.5,0.2,0.5,0.5l0,0
		C108.5,74.5,108.3,74.7,108,74.7z"/>
</g>
<g id="amazing_neo_font_00000106105795319948573550000014655933161429557665_">
	<g>
		<path class="st0" d="M108,11.6c0.7,0.7,1.1,1.7,1.1,2.7v24.5c0,1-0.4,2-1.1,2.7c-0.7,0.7-1.7,1.1-2.7,1.1l-89.6,0
			c-1,0-2-0.4-2.7-1.1c-0.7-0.7-1.1-1.7-1.1-2.7l0-24.5c0-1,0.4-2,1.1-2.7s1.7-1.1,2.7-1.1l89.6,0C106.3,10.4,107.2,10.7,108,11.6z
			 M14,30.6l21-6l24.2,9.7l14.9-5.6l33,6l0-20.5c0-0.6-0.1-1-0.6-1.3c-0.4-0.4-0.8-0.6-1.3-0.6l-89.6,0c-0.6,0-1,0.1-1.3,0.6
			c-0.4,0.4-0.6,0.8-0.6,1.3L14,30.6z M64.8,22.9c0.7-0.7,1.1-1.7,1.1-2.8s-0.4-2-1.1-2.8c-0.7-0.7-1.7-1.1-2.8-1.1
			c-1.1,0-2,0.4-2.7,1.1C58.6,18,58.2,19,58.2,20c0,1.1,0.4,2,1.1,2.8c0.7,0.7,1.7,1.1,2.8,1.1C63.1,24,63.9,23.8,64.8,22.9z"/>
	</g>
</g>
<g id="amazing_neo_font_00000130611943682610951120000009365374164177181312_" class="st3">
	<g class="st4">
		<path class="st0" d="M71.4,15.4c0.5,0.5,0.8,1.2,0.8,2v18.1c0,0.7-0.3,1.5-0.8,2c-0.5,0.5-1.2,0.8-2,0.8H51.3
			c-0.7,0-1.5-0.3-2-0.8s-0.8-1.2-0.8-2V17.4c0-0.7,0.3-1.5,0.8-2s1.2-0.8,2-0.8h18.1C70.1,14.6,70.8,14.8,71.4,15.4z M49.9,29.5
			l4.5-4.5l7.6,7.2l4.4-4.1l4.5,4.5V17.4c0-0.4-0.1-0.7-0.4-0.9c-0.3-0.3-0.6-0.4-0.9-0.4H51.3c-0.4,0-0.7,0.1-0.9,0.4
			c-0.3,0.3-0.4,0.6-0.4,0.9V29.5z M63.8,23.8c0.5-0.5,0.8-1.2,0.8-2.1s-0.3-1.5-0.8-2.1c-0.5-0.5-1.2-0.8-2.1-0.8s-1.5,0.3-2,0.8
			s-0.8,1.2-0.8,2c0,0.8,0.3,1.5,0.8,2.1c0.5,0.5,1.2,0.8,2.1,0.8C62.6,24.7,63.2,24.5,63.8,23.8z"/>
	</g>
</g>
</svg>
