<?xml version="1.0" encoding="utf-8"?>
<!-- Generator: Adobe Illustrator 25.4.1, SVG Export Plug-In . SVG Version: 6.00 Build 0)  -->
<svg version="1.1" id="Layer_1" xmlns="http://www.w3.org/2000/svg" xmlns:xlink="http://www.w3.org/1999/xlink" x="0px" y="0px"
	 viewBox="0 0 122 96" style="enable-background:new 0 0 122 96;" xml:space="preserve">
<style type="text/css">
	.st0{display:none;fill:#FFFFFF;}
	.st1{fill:#FFFFFF;}
	.st2{fill:#CACCCE;}
	.st3{opacity:0.5;fill:#CACCCE;enable-background:new    ;}
</style>
<rect x="12" y="18" class="st0" width="98" height="60"/>
<rect x="2.1" class="st1" width="118" height="96"/>
<g>
	<rect x="12.4" y="10.4" class="st2" width="96.1" height="32.1"/>
</g>
<g id="amazing_neo_font_00000106105795319948573550000014655933161429557665_">
	<g>
		<path class="st1" d="M78.2,14c0.8,0.8,1.3,2,1.3,3.1v29c0,1.2-0.5,2.3-1.3,3.1s-2,1.3-3.1,1.3h-29c-1.2,0-2.3-0.5-3.1-1.3
			c-0.8-0.8-1.3-2-1.3-3.1v-29c0-1.2,0.5-2.3,1.3-3.1c0.8-0.8,2-1.3,3.1-1.3h29C76.2,12.7,77.2,13,78.2,14z M43.9,36.6l7.1-7.1
			l12.1,11.4l7-6.6l7.1,7.1V17.2c0-0.7-0.2-1.2-0.7-1.5c-0.5-0.5-1-0.7-1.5-0.7h-29c-0.7,0-1.2,0.2-1.5,0.7c-0.5,0.5-0.7,1-0.7,1.5
			V36.6z M66.1,27.5c0.8-0.8,1.3-2,1.3-3.3s-0.5-2.3-1.3-3.3c-0.8-0.8-2-1.3-3.3-1.3c-1.3,0-2.3,0.5-3.1,1.3c-0.8,0.8-1.3,2-1.3,3.1
			c0,1.3,0.5,2.3,1.3,3.3c0.8,0.8,2,1.3,3.3,1.3C64.1,28.8,65.1,28.4,66.1,27.5z"/>
	</g>
</g>
<g>
	<path class="st3" d="M54.1,79.8H13c-0.3,0-0.5-0.2-0.5-0.5l0,0c0-0.3,0.2-0.5,0.5-0.5h41.1c0.3,0,0.5,0.2,0.5,0.5l0,0
		C54.6,79.5,54.4,79.8,54.1,79.8z"/>
	<path class="st3" d="M54.1,84.8H13c-0.3,0-0.5-0.2-0.5-0.5l0,0c0-0.3,0.2-0.5,0.5-0.5h41.1c0.3,0,0.5,0.2,0.5,0.5l0,0
		C54.6,84.5,54.4,84.8,54.1,84.8z"/>
	<path class="st3" d="M54.1,89.8H13c-0.3,0-0.5-0.2-0.5-0.5l0,0c0-0.3,0.2-0.5,0.5-0.5h41.1c0.3,0,0.5,0.2,0.5,0.5l0,0
		C54.6,89.5,54.4,89.8,54.1,89.8z"/>
	<path class="st3" d="M108,79.8H67c-0.3,0-0.5-0.2-0.5-0.5l0,0c0-0.3,0.2-0.5,0.5-0.5H108c0.3,0,0.5,0.2,0.5,0.5l0,0
		C108.5,79.5,108.3,79.8,108,79.8z"/>
	<path class="st3" d="M108,84.8H67c-0.3,0-0.5-0.2-0.5-0.5l0,0c0-0.3,0.2-0.5,0.5-0.5H108c0.3,0,0.5,0.2,0.5,0.5l0,0
		C108.5,84.5,108.3,84.8,108,84.8z"/>
	<path class="st3" d="M108,89.8H67c-0.3,0-0.5-0.2-0.5-0.5l0,0c0-0.3,0.2-0.5,0.5-0.5H108c0.3,0,0.5,0.2,0.5,0.5l0,0
		C108.5,89.5,108.3,89.8,108,89.8z"/>
</g>
<g>
	<path class="st3" d="M108,49.6H12.9c-0.3,0-0.5-0.2-0.5-0.5l0,0c0-0.3,0.2-0.5,0.5-0.5H108c0.3,0,0.5,0.2,0.5,0.5l0,0
		C108.5,49.4,108.3,49.6,108,49.6z"/>
	<path class="st3" d="M108,54.6H12.9c-0.3,0-0.5-0.2-0.5-0.5v0c0-0.3,0.2-0.5,0.5-0.5H108c0.3,0,0.5,0.2,0.5,0.5v0
		C108.5,54.4,108.3,54.6,108,54.6z"/>
	<path class="st3" d="M108,59.6H12.9c-0.3,0-0.5-0.2-0.5-0.5l0,0c0-0.3,0.2-0.5,0.5-0.5H108c0.3,0,0.5,0.2,0.5,0.5l0,0
		C108.5,59.4,108.3,59.6,108,59.6z"/>
	<path class="st3" d="M108.1,64.7H13c-0.3,0-0.5-0.2-0.5-0.5l0,0c0-0.3,0.2-0.5,0.5-0.5h95.1c0.3,0,0.5,0.2,0.5,0.5l0,0
		C108.6,64.5,108.4,64.7,108.1,64.7z"/>
	<path class="st3" d="M108.1,69.7H13c-0.3,0-0.5-0.2-0.5-0.5l0,0c0-0.3,0.2-0.5,0.5-0.5h95.1c0.3,0,0.5,0.2,0.5,0.5l0,0
		C108.6,69.5,108.4,69.7,108.1,69.7z"/>
	<path class="st3" d="M108.1,74.7H13c-0.3,0-0.5-0.2-0.5-0.5l0,0c0-0.3,0.2-0.5,0.5-0.5h95.1c0.3,0,0.5,0.2,0.5,0.5l0,0
		C108.6,74.5,108.4,74.7,108.1,74.7z"/>
</g>
</svg>
