<?xml version="1.0" encoding="utf-8"?>
<!-- Generator: Adobe Illustrator 25.4.1, SVG Export Plug-In . SVG Version: 6.00 Build 0)  -->
<svg version="1.1" id="Layer_1" xmlns="http://www.w3.org/2000/svg" xmlns:xlink="http://www.w3.org/1999/xlink" x="0px" y="0px"
	 viewBox="0 0 122 96" style="enable-background:new 0 0 122 96;" xml:space="preserve">
<style type="text/css">
	.st0{fill:#FFFFFF;}
	.st1{fill:#CACCCE;}
	.st2{opacity:0.5;fill:#CACCCE;enable-background:new    ;}
</style>
<rect x="2" class="st0" width="118" height="96"/>
<g>
	<rect x="63.9" y="61.8" class="st1" width="45.1" height="23.1"/>
	<rect x="13.2" y="89.6" class="st1" width="95.8" height="6.4"/>
	<rect x="12.9" y="61.8" class="st1" width="45.4" height="23.1"/>
</g>
<g>
	<path class="st2" d="M54.6,45.4H13.5c-0.3,0-0.5-0.2-0.5-0.5l0,0c0-0.3,0.2-0.5,0.5-0.5h41.1c0.3,0,0.5,0.2,0.5,0.5l0,0
		C55.1,45.2,54.8,45.4,54.6,45.4z"/>
	<path class="st2" d="M54.6,50.4H13.5c-0.3,0-0.5-0.2-0.5-0.5v0c0-0.3,0.2-0.5,0.5-0.5h41.1c0.3,0,0.5,0.2,0.5,0.5v0
		C55.1,50.2,54.8,50.4,54.6,50.4z"/>
	<path class="st2" d="M54.6,55.4H13.5c-0.3,0-0.5-0.2-0.5-0.5l0,0c0-0.3,0.2-0.5,0.5-0.5h41.1c0.3,0,0.5,0.2,0.5,0.5l0,0
		C55.1,55.2,54.8,55.4,54.6,55.4z"/>
	<path class="st2" d="M108.5,45.4H67.4c-0.3,0-0.5-0.2-0.5-0.5l0,0c0-0.3,0.2-0.5,0.5-0.5h41.1c0.3,0,0.5,0.2,0.5,0.5l0,0
		C109,45.2,108.8,45.4,108.5,45.4z"/>
	<path class="st2" d="M108.5,50.4H67.4c-0.3,0-0.5-0.2-0.5-0.5v0c0-0.3,0.2-0.5,0.5-0.5h41.1c0.3,0,0.5,0.2,0.5,0.5v0
		C109,50.2,108.8,50.4,108.5,50.4z"/>
	<path class="st2" d="M108.5,55.4H67.4c-0.3,0-0.5-0.2-0.5-0.5l0,0c0-0.3,0.2-0.5,0.5-0.5h41.1c0.3,0,0.5,0.2,0.5,0.5l0,0
		C109,55.2,108.8,55.4,108.5,55.4z"/>
</g>
<g>
	<path class="st2" d="M108.5,10.3H13.4c-0.3,0-0.5-0.2-0.5-0.5v0c0-0.3,0.2-0.5,0.5-0.5h95.1c0.3,0,0.5,0.2,0.5,0.5v0
		C109,10.1,108.8,10.3,108.5,10.3z"/>
	<path class="st2" d="M108.5,15.3H13.4c-0.3,0-0.5-0.2-0.5-0.5v0c0-0.3,0.2-0.5,0.5-0.5h95.1c0.3,0,0.5,0.2,0.5,0.5v0
		C109,15.1,108.8,15.3,108.5,15.3z"/>
	<path class="st2" d="M108.5,20.3H13.4c-0.3,0-0.5-0.2-0.5-0.5v0c0-0.3,0.2-0.5,0.5-0.5h95.1c0.3,0,0.5,0.2,0.5,0.5v0
		C109,20.1,108.8,20.3,108.5,20.3z"/>
	<path class="st2" d="M108.5,25.3H13.4c-0.3,0-0.5-0.2-0.5-0.5l0,0c0-0.3,0.2-0.5,0.5-0.5h95.1c0.3,0,0.5,0.2,0.5,0.5l0,0
		C109,25.1,108.8,25.3,108.5,25.3z"/>
	<path class="st2" d="M108.6,30.4H13.5c-0.3,0-0.5-0.2-0.5-0.5l0,0c0-0.3,0.2-0.5,0.5-0.5h95.1c0.3,0,0.5,0.2,0.5,0.5l0,0
		C109.1,30.2,108.9,30.4,108.6,30.4z"/>
	<path class="st2" d="M108.6,35.4H13.5c-0.3,0-0.5-0.2-0.5-0.5v0c0-0.3,0.2-0.5,0.5-0.5h95.1c0.3,0,0.5,0.2,0.5,0.5v0
		C109.1,35.2,108.9,35.4,108.6,35.4z"/>
	<path class="st2" d="M108.6,40.4H13.5c-0.3,0-0.5-0.2-0.5-0.5l0,0c0-0.3,0.2-0.5,0.5-0.5h95.1c0.3,0,0.5,0.2,0.5,0.5l0,0
		C109.1,40.2,108.9,40.4,108.6,40.4z"/>
</g>
</svg>
