<?xml version="1.0" encoding="utf-8"?>
<!-- Generator: Adobe Illustrator 25.4.1, SVG Export Plug-In . SVG Version: 6.00 Build 0)  -->
<svg version="1.1" id="Layer_1" xmlns="http://www.w3.org/2000/svg" xmlns:xlink="http://www.w3.org/1999/xlink" x="0px" y="0px"
	 viewBox="0 0 122 96" style="enable-background:new 0 0 122 96;" xml:space="preserve">
<style type="text/css">
	.st0{fill:#FFFFFF;}
	.st1{fill:#CACCCE;}
	.st2{opacity:0.5;fill:#CACCCE;enable-background:new    ;}
</style>
<g>
	<rect x="2" class="st0" width="118" height="96"/>
	<path class="st1" d="M107.8,88.3H68.1c-0.7,0-1.2-0.6-1.2-1.2V63.3c0-0.7,0.6-1.2,1.2-1.2h39.6c0.7,0,1.2,0.6,1.2,1.2v23.8
		C109,87.8,108.4,88.3,107.8,88.3z"/>
	<g>
		<path class="st2" d="M54.6,63.2H13.5c-0.3,0-0.5-0.2-0.5-0.5l0,0c0-0.3,0.2-0.5,0.5-0.5h41.1c0.3,0,0.5,0.2,0.5,0.5l0,0
			C55.1,63,54.8,63.2,54.6,63.2z"/>
		<path class="st2" d="M54.6,68.2H13.5c-0.3,0-0.5-0.2-0.5-0.5l0,0c0-0.3,0.2-0.5,0.5-0.5h41.1c0.3,0,0.5,0.2,0.5,0.5l0,0
			C55.1,68,54.8,68.2,54.6,68.2z"/>
		<path class="st2" d="M54.6,73.2H13.5c-0.3,0-0.5-0.2-0.5-0.5l0,0c0-0.3,0.2-0.5,0.5-0.5h41.1c0.3,0,0.5,0.2,0.5,0.5l0,0
			C55.1,73,54.8,73.2,54.6,73.2z"/>
		<path class="st2" d="M54.6,83.2H13.5c-0.3,0-0.5-0.2-0.5-0.5l0,0c0-0.3,0.2-0.5,0.5-0.5h41.1c0.3,0,0.5,0.2,0.5,0.5l0,0
			C55.1,83,54.8,83.2,54.6,83.2z"/>
		<path class="st2" d="M54.6,88.2H13.5c-0.3,0-0.5-0.2-0.5-0.5l0,0c0-0.3,0.2-0.5,0.5-0.5h41.1c0.3,0,0.5,0.2,0.5,0.5l0,0
			C55.1,88,54.8,88.2,54.6,88.2z"/>
		<path class="st2" d="M54.6,78.2H13.5c-0.3,0-0.5-0.2-0.5-0.5l0,0c0-0.3,0.2-0.5,0.5-0.5h41.1c0.3,0,0.5,0.2,0.5,0.5l0,0
			C55.1,78,54.8,78.2,54.6,78.2z"/>
	</g>
	<g>
		<path class="st2" d="M108.5,28.1H13.4c-0.3,0-0.5-0.2-0.5-0.5l0,0c0-0.3,0.2-0.5,0.5-0.5h95.1c0.3,0,0.5,0.2,0.5,0.5l0,0
			C109,27.9,108.8,28.1,108.5,28.1z"/>
		<path class="st2" d="M108.5,23.1H13.4c-0.3,0-0.5-0.2-0.5-0.5l0,0c0-0.3,0.2-0.5,0.5-0.5h95.1c0.3,0,0.5,0.2,0.5,0.5l0,0
			C109,22.9,108.8,23.1,108.5,23.1z"/>
		<path class="st2" d="M108.5,33.1H13.4c-0.3,0-0.5-0.2-0.5-0.5l0,0c0-0.3,0.2-0.5,0.5-0.5h95.1c0.3,0,0.5,0.2,0.5,0.5l0,0
			C109,32.9,108.8,33.1,108.5,33.1z"/>
		<path class="st2" d="M108.5,38.1H13.4c-0.3,0-0.5-0.2-0.5-0.5l0,0c0-0.3,0.2-0.5,0.5-0.5h95.1c0.3,0,0.5,0.2,0.5,0.5l0,0
			C109,37.9,108.8,38.1,108.5,38.1z"/>
		<path class="st2" d="M108.5,43.1H13.4c-0.3,0-0.5-0.2-0.5-0.5l0,0c0-0.3,0.2-0.5,0.5-0.5h95.1c0.3,0,0.5,0.2,0.5,0.5l0,0
			C109,42.9,108.8,43.1,108.5,43.1z"/>
		<path class="st2" d="M108.6,48.2H13.5c-0.3,0-0.5-0.2-0.5-0.5l0,0c0-0.3,0.2-0.5,0.5-0.5h95.1c0.3,0,0.5,0.2,0.5,0.5l0,0
			C109.1,48,108.9,48.2,108.6,48.2z"/>
		<path class="st2" d="M108.6,53.2H13.5c-0.3,0-0.5-0.2-0.5-0.5l0,0c0-0.3,0.2-0.5,0.5-0.5h95.1c0.3,0,0.5,0.2,0.5,0.5l0,0
			C109.1,53,108.9,53.2,108.6,53.2z"/>
		<path class="st2" d="M108.6,58.2H13.5c-0.3,0-0.5-0.2-0.5-0.5l0,0c0-0.3,0.2-0.5,0.5-0.5h95.1c0.3,0,0.5,0.2,0.5,0.5l0,0
			C109.1,58,108.9,58.2,108.6,58.2z"/>
	</g>
</g>
<g>
	<rect x="2" class="st1" width="118" height="14"/>
</g>
<g>
	<rect x="53.4" y="2.8" class="st0" width="15.5" height="4.3"/>
	<rect x="71.5" y="10.2" class="st0" width="6.6" height="1.6"/>
	<rect x="57.9" y="10.2" class="st0" width="6.6" height="1.6"/>
	<rect x="44.3" y="10.2" class="st0" width="6.6" height="1.6"/>
</g>
</svg>
