<?xml version="1.0" encoding="utf-8"?>
<!-- Generator: Adobe Illustrator 25.4.1, SVG Export Plug-In . SVG Version: 6.00 Build 0)  -->
<svg version="1.1" id="Layer_1" xmlns="http://www.w3.org/2000/svg" xmlns:xlink="http://www.w3.org/1999/xlink" x="0px" y="0px"
	 viewBox="0 0 122 96" style="enable-background:new 0 0 122 96;" xml:space="preserve">
<style type="text/css">
	.st0{fill:#FFFFFF;}
	.st1{fill:#CACCCE;}
	.st2{opacity:0.5;fill:#CACCCE;enable-background:new    ;}
	.st3{fill:#F9FAFE;}
</style>
<rect x="2" class="st0" width="118" height="96"/>
<g>
	<rect x="12.3" y="13.4" class="st1" width="96.1" height="29.1"/>
</g>
<g>
	<path class="st2" d="M53.9,79.8H12.9c-0.3,0-0.5-0.2-0.5-0.5l0,0c0-0.3,0.2-0.5,0.5-0.5h41.1c0.3,0,0.5,0.2,0.5,0.5l0,0
		C54.4,79.5,54.2,79.8,53.9,79.8z"/>
	<path class="st2" d="M53.9,84.8H12.9c-0.3,0-0.5-0.2-0.5-0.5l0,0c0-0.3,0.2-0.5,0.5-0.5h41.1c0.3,0,0.5,0.2,0.5,0.5l0,0
		C54.4,84.5,54.2,84.8,53.9,84.8z"/>
	<path class="st2" d="M53.9,89.8H12.9c-0.3,0-0.5-0.2-0.5-0.5l0,0c0-0.3,0.2-0.5,0.5-0.5h41.1c0.3,0,0.5,0.2,0.5,0.5l0,0
		C54.4,89.5,54.2,89.8,53.9,89.8z"/>
	<path class="st2" d="M107.9,79.8H66.8c-0.3,0-0.5-0.2-0.5-0.5l0,0c0-0.3,0.2-0.5,0.5-0.5h41.1c0.3,0,0.5,0.2,0.5,0.5l0,0
		C108.4,79.5,108.2,79.8,107.9,79.8z"/>
	<path class="st2" d="M107.9,84.8H66.8c-0.3,0-0.5-0.2-0.5-0.5l0,0c0-0.3,0.2-0.5,0.5-0.5h41.1c0.3,0,0.5,0.2,0.5,0.5l0,0
		C108.4,84.5,108.2,84.8,107.9,84.8z"/>
	<path class="st2" d="M107.9,89.8H66.8c-0.3,0-0.5-0.2-0.5-0.5l0,0c0-0.3,0.2-0.5,0.5-0.5h41.1c0.3,0,0.5,0.2,0.5,0.5l0,0
		C108.4,89.5,108.2,89.8,107.9,89.8z"/>
</g>
<g>
	<path class="st2" d="M107.9,49.6H12.8c-0.3,0-0.5-0.2-0.5-0.5l0,0c0-0.3,0.2-0.5,0.5-0.5h95.1c0.3,0,0.5,0.2,0.5,0.5l0,0
		C108.4,49.4,108.2,49.6,107.9,49.6z"/>
	<path class="st2" d="M107.9,54.6H12.8c-0.3,0-0.5-0.2-0.5-0.5v0c0-0.3,0.2-0.5,0.5-0.5h95.1c0.3,0,0.5,0.2,0.5,0.5v0
		C108.4,54.4,108.2,54.6,107.9,54.6z"/>
	<path class="st2" d="M107.9,59.6H12.8c-0.3,0-0.5-0.2-0.5-0.5l0,0c0-0.3,0.2-0.5,0.5-0.5h95.1c0.3,0,0.5,0.2,0.5,0.5l0,0
		C108.4,59.4,108.2,59.6,107.9,59.6z"/>
	<path class="st2" d="M108,64.7H12.9c-0.3,0-0.5-0.2-0.5-0.5l0,0c0-0.3,0.2-0.5,0.5-0.5H108c0.3,0,0.5,0.2,0.5,0.5l0,0
		C108.5,64.5,108.3,64.7,108,64.7z"/>
	<path class="st2" d="M108,69.7H12.9c-0.3,0-0.5-0.2-0.5-0.5l0,0c0-0.3,0.2-0.5,0.5-0.5H108c0.3,0,0.5,0.2,0.5,0.5l0,0
		C108.5,69.5,108.3,69.7,108,69.7z"/>
	<path class="st2" d="M108,74.7H12.9c-0.3,0-0.5-0.2-0.5-0.5l0,0c0-0.3,0.2-0.5,0.5-0.5H108c0.3,0,0.5,0.2,0.5,0.5l0,0
		C108.5,74.5,108.3,74.7,108,74.7z"/>
</g>
<g id="amazing_neo_font">
	<g>
		<path class="st3" d="M71.9,17c0.5,0.5,0.8,1.2,0.8,2v18c0,0.7-0.3,1.4-0.8,2c-0.5,0.5-1.2,0.8-2,0.8H52c-0.7,0-1.4-0.3-2-0.8
			c-0.5-0.5-0.8-1.2-0.8-2V19c0-0.7,0.3-1.4,0.8-2c0.5-0.5,1.2-0.8,2-0.8h18C70.7,16.2,71.3,16.4,71.9,17z M50.7,31l4.4-4.4l7.5,7.1
			l4.3-4.1l4.4,4.4V19c0-0.4-0.1-0.7-0.4-0.9c-0.3-0.3-0.6-0.4-0.9-0.4H52c-0.4,0-0.7,0.1-0.9,0.4c-0.3,0.3-0.4,0.6-0.4,0.9V31z
			 M64.4,25.4c0.5-0.5,0.8-1.2,0.8-2.1c0-0.8-0.3-1.4-0.8-2.1c-0.5-0.5-1.2-0.8-2.1-0.8c-0.8,0-1.4,0.3-2,0.8
			c-0.5,0.5-0.8,1.2-0.8,2c0,0.8,0.3,1.4,0.8,2.1c0.5,0.5,1.2,0.8,2.1,0.8C63.2,26.2,63.8,26,64.4,25.4z"/>
	</g>
</g>
</svg>
