<?xml version="1.0" encoding="utf-8"?>
<!-- Generator: Adobe Illustrator 25.4.1, SVG Export Plug-In . SVG Version: 6.00 Build 0)  -->
<svg version="1.1" id="Layer_1" xmlns="http://www.w3.org/2000/svg" xmlns:xlink="http://www.w3.org/1999/xlink" x="0px" y="0px"
	 viewBox="0 0 122 96" style="enable-background:new 0 0 122 96;" xml:space="preserve">
<style type="text/css">
	.st0{fill:#FFFFFF;}
	.st1{fill:#CACCCE;}
	.st2{opacity:0.5;fill:#CACCCE;enable-background:new    ;}
</style>
<rect x="2" class="st0" width="118" height="96"/>
<g>
	<rect x="12.3" y="10.4" class="st1" width="96.1" height="51.6"/>
</g>
<g>
	<path class="st2" d="M53.9,84.8H12.9c-0.3,0-0.5-0.2-0.5-0.5l0,0c0-0.3,0.2-0.5,0.5-0.5h41.1c0.3,0,0.5,0.2,0.5,0.5l0,0
		C54.4,84.5,54.2,84.8,53.9,84.8z"/>
	<path class="st2" d="M53.9,89.8H12.9c-0.3,0-0.5-0.2-0.5-0.5l0,0c0-0.3,0.2-0.5,0.5-0.5h41.1c0.3,0,0.5,0.2,0.5,0.5l0,0
		C54.4,89.5,54.2,89.8,53.9,89.8z"/>
	<path class="st2" d="M107.9,84.8H66.8c-0.3,0-0.5-0.2-0.5-0.5l0,0c0-0.3,0.2-0.5,0.5-0.5h41.1c0.3,0,0.5,0.2,0.5,0.5l0,0
		C108.4,84.5,108.2,84.8,107.9,84.8z"/>
	<path class="st2" d="M107.9,89.8H66.8c-0.3,0-0.5-0.2-0.5-0.5l0,0c0-0.3,0.2-0.5,0.5-0.5h41.1c0.3,0,0.5,0.2,0.5,0.5l0,0
		C108.4,89.5,108.2,89.8,107.9,89.8z"/>
</g>
<g>
	<path class="st2" d="M107.9,69.7H12.8c-0.3,0-0.5-0.2-0.5-0.5l0,0c0-0.3,0.2-0.5,0.5-0.5h95.1c0.3,0,0.5,0.2,0.5,0.5l0,0
		C108.4,69.4,108.2,69.7,107.9,69.7z"/>
	<path class="st2" d="M108,74.7H12.9c-0.3,0-0.5-0.2-0.5-0.5l0,0c0-0.3,0.2-0.5,0.5-0.5H108c0.3,0,0.5,0.2,0.5,0.5l0,0
		C108.5,74.5,108.3,74.7,108,74.7z"/>
	<path class="st2" d="M108,79.8H12.9c-0.3,0-0.5-0.2-0.5-0.5l0,0c0-0.3,0.2-0.5,0.5-0.5H108c0.3,0,0.5,0.2,0.5,0.5l0,0
		C108.5,79.5,108.3,79.8,108,79.8z"/>
</g>
<g id="amazing_neo_font_00000106105795319948573550000014655933161429557665_">
	<g>
		<path class="st0" d="M72,25.2c0.5,0.5,0.8,1.2,0.8,2v18.1c0,0.7-0.3,1.5-0.8,2c-0.5,0.5-1.2,0.8-2,0.8H51.9c-0.7,0-1.5-0.3-2-0.8
			s-0.8-1.2-0.8-2V27.1c0-0.7,0.3-1.5,0.8-2s1.2-0.8,2-0.8h18.1C70.8,24.3,71.4,24.5,72,25.2z M50.6,39.3l4.5-4.5l7.6,7.2l4.4-4.1
			l4.5,4.5V27.1c0-0.4-0.1-0.7-0.4-0.9c-0.3-0.3-0.6-0.4-0.9-0.4H51.9c-0.4,0-0.7,0.1-0.9,0.4c-0.3,0.3-0.4,0.6-0.4,0.9V39.3z
			 M64.5,33.6c0.5-0.5,0.8-1.2,0.8-2.1c0-0.8-0.3-1.5-0.8-2.1c-0.5-0.5-1.2-0.8-2.1-0.8s-1.5,0.3-2,0.8s-0.8,1.2-0.8,2
			c0,0.8,0.3,1.5,0.8,2.1c0.5,0.5,1.2,0.8,2.1,0.8C63.2,34.4,63.9,34.2,64.5,33.6z"/>
	</g>
</g>
</svg>
