<?xml version="1.0" encoding="utf-8"?>
<!-- Generator: Adobe Illustrator 25.4.1, SVG Export Plug-In . SVG Version: 6.00 Build 0)  -->
<svg version="1.1" id="Layer_1" xmlns="http://www.w3.org/2000/svg" xmlns:xlink="http://www.w3.org/1999/xlink" x="0px" y="0px"
	 viewBox="0 0 122 96" style="enable-background:new 0 0 122 96;" xml:space="preserve">
<style type="text/css">
	.st0{fill:#FFFFFF;}
	.st1{fill:#CACCCE;}
	.st2{opacity:0.5;fill:#CACCCE;enable-background:new    ;}
</style>
<rect x="2" class="st0" width="118" height="96"/>
<g>
	<rect x="12.9" y="10.9" class="st1" width="96.1" height="23.1"/>
</g>
<g>
	<path class="st2" d="M54.6,80.4H13.5c-0.3,0-0.5-0.2-0.5-0.5l0,0c0-0.3,0.2-0.5,0.5-0.5h41.1c0.3,0,0.5,0.2,0.5,0.5l0,0
		C55.1,80.2,54.8,80.4,54.6,80.4z"/>
	<path class="st2" d="M54.6,85.4H13.5c-0.3,0-0.5-0.2-0.5-0.5l0,0c0-0.3,0.2-0.5,0.5-0.5h41.1c0.3,0,0.5,0.2,0.5,0.5l0,0
		C55.1,85.2,54.8,85.4,54.6,85.4z"/>
	<path class="st2" d="M54.6,90.4H13.5c-0.3,0-0.5-0.2-0.5-0.5l0,0c0-0.3,0.2-0.5,0.5-0.5h41.1c0.3,0,0.5,0.2,0.5,0.5l0,0
		C55.1,90.2,54.8,90.4,54.6,90.4z"/>
</g>
<g>
	<path class="st2" d="M108.5,45.3H13.4c-0.3,0-0.5-0.2-0.5-0.5v0c0-0.3,0.2-0.5,0.5-0.5h95.1c0.3,0,0.5,0.2,0.5,0.5v0
		C109,45.1,108.8,45.3,108.5,45.3z"/>
	<path class="st2" d="M108.5,40.3H13.4c-0.3,0-0.5-0.2-0.5-0.5l0,0c0-0.3,0.2-0.5,0.5-0.5h95.1c0.3,0,0.5,0.2,0.5,0.5l0,0
		C109,40.1,108.8,40.3,108.5,40.3z"/>
	<path class="st2" d="M108.5,50.3H13.4c-0.3,0-0.5-0.2-0.5-0.5l0,0c0-0.3,0.2-0.5,0.5-0.5h95.1c0.3,0,0.5,0.2,0.5,0.5l0,0
		C109,50.1,108.8,50.3,108.5,50.3z"/>
	<path class="st2" d="M108.5,55.3H13.4c-0.3,0-0.5-0.2-0.5-0.5l0,0c0-0.3,0.2-0.5,0.5-0.5h95.1c0.3,0,0.5,0.2,0.5,0.5l0,0
		C109,55.1,108.8,55.3,108.5,55.3z"/>
	<path class="st2" d="M108.5,60.3H13.4c-0.3,0-0.5-0.2-0.5-0.5v0c0-0.3,0.2-0.5,0.5-0.5h95.1c0.3,0,0.5,0.2,0.5,0.5v0
		C109,60.1,108.8,60.3,108.5,60.3z"/>
	<path class="st2" d="M108.6,65.4H13.5c-0.3,0-0.5-0.2-0.5-0.5l0,0c0-0.3,0.2-0.5,0.5-0.5h95.1c0.3,0,0.5,0.2,0.5,0.5l0,0
		C109.1,65.2,108.9,65.4,108.6,65.4z"/>
	<path class="st2" d="M108.6,70.4H13.5c-0.3,0-0.5-0.2-0.5-0.5l0,0c0-0.3,0.2-0.5,0.5-0.5h95.1c0.3,0,0.5,0.2,0.5,0.5l0,0
		C109.1,70.2,108.9,70.4,108.6,70.4z"/>
	<path class="st2" d="M108.6,75.4H13.5c-0.3,0-0.5-0.2-0.5-0.5l0,0c0-0.3,0.2-0.5,0.5-0.5h95.1c0.3,0,0.5,0.2,0.5,0.5l0,0
		C109.1,75.2,108.9,75.4,108.6,75.4z"/>
</g>
<path class="st1" d="M109,90.7H66.9V80c0-0.3,0.3-0.6,0.6-0.6h40.9c0.3,0,0.6,0.3,0.6,0.6V90.7z"/>
<g>
	<g>
		<rect x="40.4" y="16" class="st0" width="41.3" height="6"/>
	</g>
	<g>
		<rect x="71.8" y="25.8" class="st0" width="6.6" height="2.2"/>
	</g>
	<g>
		<rect x="58.2" y="25.8" class="st0" width="6.6" height="2.2"/>
	</g>
	<g>
		<rect x="44.6" y="25.8" class="st0" width="6.6" height="2.2"/>
	</g>
</g>
</svg>
