<?xml version="1.0" encoding="utf-8"?>
<!-- Generator: Adobe Illustrator 25.4.1, SVG Export Plug-In . SVG Version: 6.00 Build 0)  -->
<svg version="1.1" id="Layer_1" xmlns="http://www.w3.org/2000/svg" xmlns:xlink="http://www.w3.org/1999/xlink" x="0px" y="0px"
	 viewBox="0 0 122 96" style="enable-background:new 0 0 122 96;" xml:space="preserve">
<style type="text/css">
	.st0{fill:#FFFFFF;}
	.st1{fill:#E2E2E2;}
	.st2{fill:#CACCCE;}
</style>
<rect x="2" class="st0" width="118" height="96"/>
<g>
	<path class="st1" d="M61.5,32.3c8.6,0,15.6,7,15.6,15.6s-7,15.6-15.6,15.6s-15.6-7-15.6-15.6S52.8,32.3,61.5,32.3 M61.5,30.3
		c-9.7,0-17.6,7.9-17.6,17.6s7.9,17.6,17.6,17.6S79.1,57.7,79.1,48S71.2,30.3,61.5,30.3L61.5,30.3z"/>
	<path class="st2" d="M45.8,48c0,4,1.5,7.7,4,10.4l-1.5,1.3c-2.8-3.1-4.5-7.2-4.5-11.8c0-6.3,3.3-11.9,8.3-15l1.1,1.7
		C48.8,37.5,45.8,42.4,45.8,48z"/>
</g>
</svg>
