<?xml version="1.0" encoding="utf-8"?>
<!-- Generator: Adobe Illustrator 25.4.1, SVG Export Plug-In . SVG Version: 6.00 Build 0)  -->
<svg version="1.1" id="Layer_1" xmlns="http://www.w3.org/2000/svg" xmlns:xlink="http://www.w3.org/1999/xlink" x="0px" y="0px"
	 viewBox="0 0 122 96" style="enable-background:new 0 0 122 96;" xml:space="preserve">
<style type="text/css">
	.st0{fill:#FFFFFF;}
	.st1{fill:#F2F2F2;}
	.st2{fill:#E2E2E2;}
	.st3{fill:#D3D3D3;}
	.st4{fill:#CACCCE;}
</style>
<rect x="2" class="st0" width="118" height="96"/>
<g>
	<path class="st1" d="M61.2,57.7c-5.2,0-9.4-4.2-9.5-9.5c-0.1-2.6,0.9-5.1,2.7-7c1.8-1.8,4.2-2.9,6.7-2.9l0,0c0.6,0,1.3,0.1,1.9,0.2
		c0.4,0.1,0.7,0.4,0.7,0.8v0.4L63.4,40c-0.2,0.2-0.4,0.2-0.7,0.2c-1.5-0.3-3.1-0.1-4.6,0.5c-0.9,0.4-1.8,1-2.5,1.7
		c-0.7,0.7-1.3,1.6-1.7,2.5c-0.4,1-0.6,2-0.6,3.1c0,1.1,0.2,2.1,0.6,3.1c0.4,1,1,1.8,1.7,2.5c0.7,0.7,1.6,1.3,2.5,1.7
		c1,0.4,2,0.6,3.1,0.6H62l0.1,0.9v0.8L61.2,57.7C61.2,57.7,61.2,57.7,61.2,57.7z M62.7,40C62.7,40,62.7,40,62.7,40
		C62.7,40,62.7,40,62.7,40z"/>
	<path class="st2" d="M61.2,60.4c-6.6,0-12.1-5.4-12.2-12.1c-0.1-3.4,1.2-6.5,3.5-8.9c2.3-2.3,5.3-3.7,8.6-3.7l0,0
		c2.5,0,4.9,0.7,6.9,2.1c0.3,0.2,0.4,0.6,0.3,1c-0.1,0.4-0.4,0.6-0.8,0.6h-0.2L67,39.1c-0.6-0.4-1.1-0.7-1.7-0.9
		c-2.6-1.1-5.6-1.1-8.2,0c-1.2,0.5-2.4,1.3-3.3,2.3c-1,1-1.7,2.1-2.3,3.4c-0.5,1.3-0.8,2.7-0.8,4.1c0,1.4,0.3,2.8,0.8,4.1
		c0.5,1.3,1.3,2.4,2.3,3.4c1,1,2.1,1.7,3.3,2.3c1.3,0.6,2.7,0.8,4.1,0.8h0.8l0.1,0.9v0.8L61.2,60.4C61.2,60.4,61.2,60.4,61.2,60.4z"
		/>
	<path class="st3" d="M62,62.9h-0.8c-8,0-14.6-6.6-14.8-14.6c-0.1-4.1,1.4-7.9,4.2-10.8c2.8-2.8,6.5-4.4,10.4-4.4c0,0,0.1,0,0.1,0
		c5,0,9.6,2.5,12.3,6.8c0.2,0.3,0.2,0.6,0,0.9c-0.3,0.5-1.2,0.6-1.5,0.1c-0.5-0.8-1.1-1.5-1.7-2.1c-1.2-1.2-2.6-2.2-4.1-2.8
		c-3.2-1.4-6.9-1.4-10.1,0c-1.5,0.7-2.9,1.6-4.1,2.8c-1.2,1.2-2.1,2.6-2.8,4.2c-0.7,1.6-1,3.4-1,5.1c0,1.8,0.3,3.5,1,5.1
		c0.7,1.6,1.6,3,2.8,4.2c1.2,1.2,2.6,2.2,4.1,2.8c1.6,0.7,3.3,1,5.1,1H62l0.1,1V62.9z"/>
	<path class="st4" d="M61.2,65.7c-4.6,0-8.9-1.8-12.2-5.1c-3.4-3.3-5.2-7.8-5.2-12.6c0-9.7,7.8-17.7,17.4-17.7
		c8.2,0,15.4,5.9,17.1,14.1c0.1,0.3,0,0.5-0.2,0.7c-0.2,0.2-0.4,0.3-0.7,0.3c-0.4,0-0.8-0.3-0.9-0.7c-0.2-1-0.5-2-0.9-3
		c-0.8-1.9-1.9-3.6-3.4-5c-1.4-1.5-3.1-2.6-5-3.4c-3.9-1.7-8.3-1.7-12.2,0c-1.9,0.8-3.5,1.9-5,3.4c-1.4,1.5-2.6,3.2-3.4,5
		c-0.8,2-1.2,4-1.2,6.2c0,2.1,0.4,4.2,1.2,6.2c0.8,1.9,1.9,3.6,3.4,5c1.4,1.5,3.1,2.6,5,3.4c1.9,0.8,4,1.2,6.1,1.2h0.8l0.1,1v0.8
		L61.2,65.7C61.2,65.7,61.2,65.7,61.2,65.7z"/>
</g>
</svg>
