<?xml version="1.0" encoding="utf-8"?>
<!-- Generator: Adobe Illustrator 25.4.1, SVG Export Plug-In . SVG Version: 6.00 Build 0)  -->
<svg version="1.1" id="Layer_1" xmlns="http://www.w3.org/2000/svg" xmlns:xlink="http://www.w3.org/1999/xlink" x="0px" y="0px"
	 viewBox="0 0 122 96" style="enable-background:new 0 0 122 96;" xml:space="preserve">
<style type="text/css">
	.st0{fill:#FFFFFF;}
	.st1{fill:#CACCCE;}
	.st2{opacity:0.5;fill:#CACCCE;enable-background:new    ;}
</style>
<rect x="2" class="st0" width="118" height="96"/>
<g>
	<rect x="12.3" y="10.4" class="st1" width="96.1" height="51.6"/>
</g>
<g>
	<path class="st2" d="M53.9,84.8H12.9c-0.3,0-0.5-0.2-0.5-0.5l0,0c0-0.3,0.2-0.5,0.5-0.5h41.1c0.3,0,0.5,0.2,0.5,0.5l0,0
		C54.4,84.5,54.2,84.8,53.9,84.8z"/>
	<path class="st2" d="M53.9,89.8H12.9c-0.3,0-0.5-0.2-0.5-0.5l0,0c0-0.3,0.2-0.5,0.5-0.5h41.1c0.3,0,0.5,0.2,0.5,0.5l0,0
		C54.4,89.5,54.2,89.8,53.9,89.8z"/>
	<path class="st2" d="M107.9,84.8H66.8c-0.3,0-0.5-0.2-0.5-0.5l0,0c0-0.3,0.2-0.5,0.5-0.5h41.1c0.3,0,0.5,0.2,0.5,0.5l0,0
		C108.4,84.5,108.2,84.8,107.9,84.8z"/>
	<path class="st2" d="M107.9,89.8H66.8c-0.3,0-0.5-0.2-0.5-0.5l0,0c0-0.3,0.2-0.5,0.5-0.5h41.1c0.3,0,0.5,0.2,0.5,0.5l0,0
		C108.4,89.5,108.2,89.8,107.9,89.8z"/>
</g>
<g>
	<path class="st2" d="M107.9,69.7H12.8c-0.3,0-0.5-0.2-0.5-0.5l0,0c0-0.3,0.2-0.5,0.5-0.5h95.1c0.3,0,0.5,0.2,0.5,0.5l0,0
		C108.4,69.4,108.2,69.7,107.9,69.7z"/>
	<path class="st2" d="M108,74.7H12.9c-0.3,0-0.5-0.2-0.5-0.5l0,0c0-0.3,0.2-0.5,0.5-0.5H108c0.3,0,0.5,0.2,0.5,0.5l0,0
		C108.5,74.5,108.3,74.7,108,74.7z"/>
	<path class="st2" d="M108,79.8H12.9c-0.3,0-0.5-0.2-0.5-0.5l0,0c0-0.3,0.2-0.5,0.5-0.5H108c0.3,0,0.5,0.2,0.5,0.5l0,0
		C108.5,79.5,108.3,79.8,108,79.8z"/>
</g>
<g id="amazing_neo_font_00000175302931705397402250000000763248638037602454_">
	<g>
		<path class="st0" d="M66.8,13c0.3,0.3,0.5,0.7,0.5,1.1v10.5c0,0.4-0.2,0.8-0.5,1.1c-0.3,0.3-0.7,0.5-1.1,0.5H55.1
			c-0.4,0-0.8-0.2-1.1-0.5c-0.3-0.3-0.5-0.7-0.5-1.1V14.1c0-0.4,0.2-0.8,0.5-1.1c0.3-0.3,0.7-0.5,1.1-0.5h10.5
			C66,12.5,66.4,12.6,66.8,13z M54.3,21.2l2.6-2.6l4.4,4.2l2.5-2.4l2.6,2.6v-8.8c0-0.2-0.1-0.4-0.2-0.5c-0.2-0.2-0.4-0.2-0.5-0.2
			H55.1c-0.2,0-0.4,0.1-0.5,0.2c-0.2,0.2-0.2,0.4-0.2,0.5V21.2z M62.4,17.9c0.3-0.3,0.5-0.7,0.5-1.2c0-0.5-0.2-0.8-0.5-1.2
			c-0.3-0.3-0.7-0.5-1.2-0.5c-0.5,0-0.8,0.2-1.1,0.5s-0.5,0.7-0.5,1.1c0,0.5,0.2,0.8,0.5,1.2c0.3,0.3,0.7,0.5,1.2,0.5
			C61.6,18.4,62,18.2,62.4,17.9z"/>
	</g>
</g>
<g id="amazing_neo_font_00000028300937906014431460000005095903185693025199_">
	<g>
		<path class="st0" d="M66.8,30c0.3,0.3,0.5,0.7,0.5,1.1v10.5c0,0.4-0.2,0.8-0.5,1.1c-0.3,0.3-0.7,0.5-1.1,0.5H55.1
			c-0.4,0-0.8-0.2-1.1-0.5c-0.3-0.3-0.5-0.7-0.5-1.1V31.2c0-0.4,0.2-0.8,0.5-1.1c0.3-0.3,0.7-0.5,1.1-0.5h10.5
			C66,29.5,66.4,29.7,66.8,30z M54.3,38.2l2.6-2.6l4.4,4.2l2.5-2.4l2.6,2.6v-8.8c0-0.2-0.1-0.4-0.2-0.5c-0.2-0.2-0.4-0.2-0.5-0.2
			H55.1c-0.2,0-0.4,0.1-0.5,0.2c-0.2,0.2-0.2,0.4-0.2,0.5V38.2z M62.4,34.9c0.3-0.3,0.5-0.7,0.5-1.2c0-0.5-0.2-0.8-0.5-1.2
			c-0.3-0.3-0.7-0.5-1.2-0.5c-0.5,0-0.8,0.2-1.1,0.5c-0.3,0.3-0.5,0.7-0.5,1.1c0,0.5,0.2,0.8,0.5,1.2c0.3,0.3,0.7,0.5,1.2,0.5
			C61.6,35.4,62,35.2,62.4,34.9z"/>
	</g>
</g>
<g id="amazing_neo_font_00000182512827199031999480000012574890147460285831_">
	<g>
		<path class="st0" d="M66.8,46.6c0.3,0.3,0.5,0.7,0.5,1.1v10.5c0,0.4-0.2,0.8-0.5,1.1c-0.3,0.3-0.7,0.5-1.1,0.5H55.1
			c-0.4,0-0.8-0.2-1.1-0.5c-0.3-0.3-0.5-0.7-0.5-1.1V47.7c0-0.4,0.2-0.8,0.5-1.1s0.7-0.5,1.1-0.5h10.5C66,46.1,66.4,46.2,66.8,46.6z
			 M54.3,54.8l2.6-2.6l4.4,4.2l2.5-2.4l2.6,2.6v-8.8c0-0.2-0.1-0.4-0.2-0.5c-0.2-0.2-0.4-0.2-0.5-0.2H55.1c-0.2,0-0.4,0.1-0.5,0.2
			c-0.2,0.2-0.2,0.4-0.2,0.5V54.8z M62.4,51.5c0.3-0.3,0.5-0.7,0.5-1.2c0-0.5-0.2-0.8-0.5-1.2c-0.3-0.3-0.7-0.5-1.2-0.5
			c-0.5,0-0.8,0.2-1.1,0.5c-0.3,0.3-0.5,0.7-0.5,1.1c0,0.5,0.2,0.8,0.5,1.2c0.3,0.3,0.7,0.5,1.2,0.5C61.6,51.9,62,51.8,62.4,51.5z"
			/>
	</g>
</g>
</svg>
