<?xml version="1.0" encoding="utf-8"?>
<!-- Generator: Adobe Illustrator 25.4.1, SVG Export Plug-In . SVG Version: 6.00 Build 0)  -->
<svg version="1.1" id="Layer_1" xmlns="http://www.w3.org/2000/svg" xmlns:xlink="http://www.w3.org/1999/xlink" x="0px" y="0px"
	 viewBox="0 0 122 96" style="enable-background:new 0 0 122 96;" xml:space="preserve">
<style type="text/css">
	.st0{display:none;fill:#FFFFFF;}
	.st1{fill:#FFFFFF;}
	.st2{fill:#CACCCE;}
	.st3{opacity:0.5;fill:#CACCCE;enable-background:new    ;}
</style>
<rect x="12" y="18" class="st0" width="98" height="60"/>
<rect x="2.1" class="st1" width="118" height="96"/>
<g>
	<rect x="12.4" y="10.4" class="st2" width="96.1" height="32.1"/>
</g>
<g>
	<path class="st3" d="M54.1,79.8H13c-0.3,0-0.5-0.2-0.5-0.5l0,0c0-0.3,0.2-0.5,0.5-0.5h41.1c0.3,0,0.5,0.2,0.5,0.5l0,0
		C54.6,79.5,54.4,79.8,54.1,79.8z"/>
	<path class="st3" d="M54.1,84.8H13c-0.3,0-0.5-0.2-0.5-0.5l0,0c0-0.3,0.2-0.5,0.5-0.5h41.1c0.3,0,0.5,0.2,0.5,0.5l0,0
		C54.6,84.5,54.4,84.8,54.1,84.8z"/>
	<path class="st3" d="M54.1,89.8H13c-0.3,0-0.5-0.2-0.5-0.5l0,0c0-0.3,0.2-0.5,0.5-0.5h41.1c0.3,0,0.5,0.2,0.5,0.5l0,0
		C54.6,89.5,54.4,89.8,54.1,89.8z"/>
	<path class="st3" d="M108,79.8H67c-0.3,0-0.5-0.2-0.5-0.5l0,0c0-0.3,0.2-0.5,0.5-0.5H108c0.3,0,0.5,0.2,0.5,0.5l0,0
		C108.5,79.5,108.3,79.8,108,79.8z"/>
	<path class="st3" d="M108,84.8H67c-0.3,0-0.5-0.2-0.5-0.5l0,0c0-0.3,0.2-0.5,0.5-0.5H108c0.3,0,0.5,0.2,0.5,0.5l0,0
		C108.5,84.5,108.3,84.8,108,84.8z"/>
	<path class="st3" d="M108,89.8H67c-0.3,0-0.5-0.2-0.5-0.5l0,0c0-0.3,0.2-0.5,0.5-0.5H108c0.3,0,0.5,0.2,0.5,0.5l0,0
		C108.5,89.5,108.3,89.8,108,89.8z"/>
</g>
<g>
	<path class="st3" d="M108,49.6H12.9c-0.3,0-0.5-0.2-0.5-0.5l0,0c0-0.3,0.2-0.5,0.5-0.5H108c0.3,0,0.5,0.2,0.5,0.5l0,0
		C108.5,49.4,108.3,49.6,108,49.6z"/>
	<path class="st3" d="M108,54.6H12.9c-0.3,0-0.5-0.2-0.5-0.5v0c0-0.3,0.2-0.5,0.5-0.5H108c0.3,0,0.5,0.2,0.5,0.5v0
		C108.5,54.4,108.3,54.6,108,54.6z"/>
	<path class="st3" d="M108,59.6H12.9c-0.3,0-0.5-0.2-0.5-0.5l0,0c0-0.3,0.2-0.5,0.5-0.5H108c0.3,0,0.5,0.2,0.5,0.5l0,0
		C108.5,59.4,108.3,59.6,108,59.6z"/>
	<path class="st3" d="M108.1,64.7H13c-0.3,0-0.5-0.2-0.5-0.5l0,0c0-0.3,0.2-0.5,0.5-0.5h95.1c0.3,0,0.5,0.2,0.5,0.5l0,0
		C108.6,64.5,108.4,64.7,108.1,64.7z"/>
	<path class="st3" d="M108.1,69.7H13c-0.3,0-0.5-0.2-0.5-0.5l0,0c0-0.3,0.2-0.5,0.5-0.5h95.1c0.3,0,0.5,0.2,0.5,0.5l0,0
		C108.6,69.5,108.4,69.7,108.1,69.7z"/>
	<path class="st3" d="M108.1,74.7H13c-0.3,0-0.5-0.2-0.5-0.5l0,0c0-0.3,0.2-0.5,0.5-0.5h95.1c0.3,0,0.5,0.2,0.5,0.5l0,0
		C108.6,74.5,108.4,74.7,108.1,74.7z"/>
</g>
<g id="amazing_neo_font_00000106105795319948573550000014655933161429557665_">
	<g>
		<path class="st1" d="M71.5,15.4c0.5,0.5,0.8,1.2,0.8,2v18.1c0,0.7-0.3,1.5-0.8,2c-0.5,0.5-1.2,0.8-2,0.8H51.4
			c-0.7,0-1.5-0.3-2-0.8s-0.8-1.2-0.8-2V17.4c0-0.7,0.3-1.5,0.8-2s1.2-0.8,2-0.8h18.1C70.3,14.6,70.9,14.8,71.5,15.4z M50.1,29.5
			l4.5-4.5l7.6,7.2l4.4-4.1l4.5,4.5V17.4c0-0.4-0.1-0.7-0.4-0.9c-0.3-0.3-0.6-0.4-0.9-0.4H51.4c-0.4,0-0.7,0.1-0.9,0.4
			c-0.3,0.3-0.4,0.6-0.4,0.9V29.5z M64,23.8c0.5-0.5,0.8-1.2,0.8-2.1s-0.3-1.5-0.8-2.1c-0.5-0.5-1.2-0.8-2.1-0.8
			c-0.8,0-1.5,0.3-2,0.8s-0.8,1.2-0.8,2c0,0.8,0.3,1.5,0.8,2.1c0.5,0.5,1.2,0.8,2.1,0.8C62.7,24.7,63.3,24.5,64,23.8z"/>
	</g>
</g>
</svg>
