<?xml version="1.0" encoding="utf-8"?>
<!-- Generator: Adobe Illustrator 25.4.1, SVG Export Plug-In . SVG Version: 6.00 Build 0)  -->
<svg version="1.1" id="Layer_1" xmlns="http://www.w3.org/2000/svg" xmlns:xlink="http://www.w3.org/1999/xlink" x="0px" y="0px"
	 viewBox="0 0 122 96" style="enable-background:new 0 0 122 96;" xml:space="preserve">
<style type="text/css">
	.st0{fill:#FFFFFF;}
	.st1{fill:#CACCCE;}
	.st2{opacity:0.5;fill:#CACCCE;enable-background:new    ;}
</style>
<rect x="2" class="st0" width="118" height="96"/>
<g>
	<rect x="85.7" y="8.8" class="st1" width="23.3" height="82.1"/>
</g>
<rect x="12.9" y="8.8" class="st1" width="23.3" height="82.1"/>
<g>
	<path class="st2" d="M57.5,45.4H40.4c-0.3,0-0.5-0.2-0.5-0.5l0,0c0-0.3,0.2-0.5,0.5-0.5h17.1c0.3,0,0.5,0.2,0.5,0.5l0,0
		C58,45.2,57.7,45.4,57.5,45.4z"/>
	<path class="st2" d="M57.5,50.4H40.4c-0.3,0-0.5-0.2-0.5-0.5l0,0c0-0.3,0.2-0.5,0.5-0.5h17.1c0.3,0,0.5,0.2,0.5,0.5l0,0
		C58,50.2,57.7,50.4,57.5,50.4z"/>
	<path class="st2" d="M57.5,55.4H40.4c-0.3,0-0.5-0.2-0.5-0.5l0,0c0-0.3,0.2-0.5,0.5-0.5h17.1c0.3,0,0.5,0.2,0.5,0.5l0,0
		C58,55.2,57.7,55.4,57.5,55.4z"/>
	<path class="st2" d="M81.4,45.4H64.3c-0.3,0-0.5-0.2-0.5-0.5l0,0c0-0.3,0.2-0.5,0.5-0.5h17.1c0.3,0,0.5,0.2,0.5,0.5l0,0
		C81.9,45.2,81.7,45.4,81.4,45.4z"/>
	<path class="st2" d="M81.4,50.4H64.3c-0.3,0-0.5-0.2-0.5-0.5l0,0c0-0.3,0.2-0.5,0.5-0.5h17.1c0.3,0,0.5,0.2,0.5,0.5l0,0
		C81.9,50.2,81.7,50.4,81.4,50.4z"/>
	<path class="st2" d="M81.4,55.4H64.3c-0.3,0-0.5-0.2-0.5-0.5l0,0c0-0.3,0.2-0.5,0.5-0.5h17.1c0.3,0,0.5,0.2,0.5,0.5l0,0
		C81.9,55.2,81.7,55.4,81.4,55.4z"/>
</g>
<g>
	<path class="st2" d="M81.4,10.3H40.3c-0.3,0-0.5-0.2-0.5-0.5l0,0c0-0.3,0.2-0.5,0.5-0.5h41.1c0.3,0,0.5,0.2,0.5,0.5l0,0
		C81.9,10.1,81.7,10.3,81.4,10.3z"/>
	<path class="st2" d="M81.4,15.3H40.3c-0.3,0-0.5-0.2-0.5-0.5l0,0c0-0.3,0.2-0.5,0.5-0.5h41.1c0.3,0,0.5,0.2,0.5,0.5l0,0
		C81.9,15.1,81.7,15.3,81.4,15.3z"/>
	<path class="st2" d="M81.4,20.3H40.3c-0.3,0-0.5-0.2-0.5-0.5l0,0c0-0.3,0.2-0.5,0.5-0.5h41.1c0.3,0,0.5,0.2,0.5,0.5l0,0
		C81.9,20.1,81.7,20.3,81.4,20.3z"/>
	<path class="st2" d="M81.4,25.3H40.3c-0.3,0-0.5-0.2-0.5-0.5l0,0c0-0.3,0.2-0.5,0.5-0.5h41.1c0.3,0,0.5,0.2,0.5,0.5l0,0
		C81.9,25.1,81.7,25.3,81.4,25.3z"/>
	<path class="st2" d="M81.5,30.4H40.4c-0.3,0-0.5-0.2-0.5-0.5l0,0c0-0.3,0.2-0.5,0.5-0.5h41.1c0.3,0,0.5,0.2,0.5,0.5l0,0
		C82,30.2,81.8,30.4,81.5,30.4z"/>
	<path class="st2" d="M81.5,35.4H40.4c-0.3,0-0.5-0.2-0.5-0.5l0,0c0-0.3,0.2-0.5,0.5-0.5h41.1c0.3,0,0.5,0.2,0.5,0.5l0,0
		C82,35.2,81.8,35.4,81.5,35.4z"/>
	<path class="st2" d="M81.5,40.4H40.4c-0.3,0-0.5-0.2-0.5-0.5l0,0c0-0.3,0.2-0.5,0.5-0.5h41.1c0.3,0,0.5,0.2,0.5,0.5l0,0
		C82,40.2,81.8,40.4,81.5,40.4z"/>
</g>
<g>
	<path class="st2" d="M81.4,60.3H40.3c-0.3,0-0.5-0.2-0.5-0.5l0,0c0-0.3,0.2-0.5,0.5-0.5h41.1c0.3,0,0.5,0.2,0.5,0.5l0,0
		C81.9,60.1,81.7,60.3,81.4,60.3z"/>
	<path class="st2" d="M81.4,65.3H40.3c-0.3,0-0.5-0.2-0.5-0.5l0,0c0-0.3,0.2-0.5,0.5-0.5h41.1c0.3,0,0.5,0.2,0.5,0.5l0,0
		C81.9,65.1,81.7,65.3,81.4,65.3z"/>
	<path class="st2" d="M81.4,70.3H40.3c-0.3,0-0.5-0.2-0.5-0.5l0,0c0-0.3,0.2-0.5,0.5-0.5h41.1c0.3,0,0.5,0.2,0.5,0.5l0,0
		C81.9,70.1,81.7,70.3,81.4,70.3z"/>
	<path class="st2" d="M81.4,75.3H40.3c-0.3,0-0.5-0.2-0.5-0.5l0,0c0-0.3,0.2-0.5,0.5-0.5h41.1c0.3,0,0.5,0.2,0.5,0.5l0,0
		C81.9,75.1,81.7,75.3,81.4,75.3z"/>
	<path class="st2" d="M81.5,80.4H40.4c-0.3,0-0.5-0.2-0.5-0.5l0,0c0-0.3,0.2-0.5,0.5-0.5h41.1c0.3,0,0.5,0.2,0.5,0.5l0,0
		C82,80.2,81.8,80.4,81.5,80.4z"/>
	<path class="st2" d="M81.5,85.4H40.4c-0.3,0-0.5-0.2-0.5-0.5l0,0c0-0.3,0.2-0.5,0.5-0.5h41.1c0.3,0,0.5,0.2,0.5,0.5l0,0
		C82,85.2,81.8,85.4,81.5,85.4z"/>
	<path class="st2" d="M81.5,90.4H40.4c-0.3,0-0.5-0.2-0.5-0.5l0,0c0-0.3,0.2-0.5,0.5-0.5h41.1c0.3,0,0.5,0.2,0.5,0.5l0,0
		C82,90.2,81.8,90.4,81.5,90.4z"/>
</g>
</svg>
