<?xml version="1.0" encoding="utf-8"?>
<!-- Generator: Adobe Illustrator 25.4.1, SVG Export Plug-In . SVG Version: 6.00 Build 0)  -->
<svg version="1.1" id="Layer_1" xmlns="http://www.w3.org/2000/svg" xmlns:xlink="http://www.w3.org/1999/xlink" x="0px" y="0px"
	 viewBox="0 0 122 96" style="enable-background:new 0 0 122 96;" xml:space="preserve">
<style type="text/css">
	.st0{fill:#FFFFFF;}
	.st1{opacity:0.5;fill:#CACCCE;enable-background:new    ;}
</style>
<rect x="2" class="st0" width="118" height="96"/>
<g>
	<path class="st1" d="M57.5,45.4h-44c-0.3,0-0.5-0.2-0.5-0.5l0,0c0-0.3,0.2-0.5,0.5-0.5h44c0.3,0,0.5,0.2,0.5,0.5l0,0
		C58,45.2,57.7,45.4,57.5,45.4z"/>
	<path class="st1" d="M57.5,50.4h-44c-0.3,0-0.5-0.2-0.5-0.5l0,0c0-0.3,0.2-0.5,0.5-0.5h44c0.3,0,0.5,0.2,0.5,0.5l0,0
		C58,50.2,57.7,50.4,57.5,50.4z"/>
	<path class="st1" d="M57.5,55.4h-44c-0.3,0-0.5-0.2-0.5-0.5l0,0c0-0.3,0.2-0.5,0.5-0.5h44c0.3,0,0.5,0.2,0.5,0.5l0,0
		C58,55.2,57.7,55.4,57.5,55.4z"/>
	<path class="st1" d="M108.5,45.4H64.3c-0.3,0-0.5-0.2-0.5-0.5l0,0c0-0.3,0.2-0.5,0.5-0.5h44.2c0.3,0,0.5,0.2,0.5,0.5l0,0
		C109,45.2,108.8,45.4,108.5,45.4z"/>
	<path class="st1" d="M108.5,50.4H64.3c-0.3,0-0.5-0.2-0.5-0.5l0,0c0-0.3,0.2-0.5,0.5-0.5h44.2c0.3,0,0.5,0.2,0.5,0.5l0,0
		C109,50.2,108.8,50.4,108.5,50.4z"/>
	<path class="st1" d="M108.5,55.4H64.3c-0.3,0-0.5-0.2-0.5-0.5l0,0c0-0.3,0.2-0.5,0.5-0.5h44.2c0.3,0,0.5,0.2,0.5,0.5l0,0
		C109,55.2,108.8,55.4,108.5,55.4z"/>
</g>
<g>
	<path class="st1" d="M108.5,10.3H13.4c-0.3,0-0.5-0.2-0.5-0.5l0,0c0-0.3,0.2-0.5,0.5-0.5h95.1c0.3,0,0.5,0.2,0.5,0.5l0,0
		C109,10.1,108.8,10.3,108.5,10.3z"/>
	<path class="st1" d="M108.5,15.3H13.4c-0.3,0-0.5-0.2-0.5-0.5l0,0c0-0.3,0.2-0.5,0.5-0.5h95.1c0.3,0,0.5,0.2,0.5,0.5l0,0
		C109,15.1,108.8,15.3,108.5,15.3z"/>
	<path class="st1" d="M108.5,20.3H13.4c-0.3,0-0.5-0.2-0.5-0.5l0,0c0-0.3,0.2-0.5,0.5-0.5h95.1c0.3,0,0.5,0.2,0.5,0.5l0,0
		C109,20.1,108.8,20.3,108.5,20.3z"/>
	<path class="st1" d="M108.5,25.3H13.4c-0.3,0-0.5-0.2-0.5-0.5l0,0c0-0.3,0.2-0.5,0.5-0.5h95.1c0.3,0,0.5,0.2,0.5,0.5l0,0
		C109,25.1,108.8,25.3,108.5,25.3z"/>
	<path class="st1" d="M108.6,30.4H13.5c-0.3,0-0.5-0.2-0.5-0.5l0,0c0-0.3,0.2-0.5,0.5-0.5h95.1c0.3,0,0.5,0.2,0.5,0.5l0,0
		C109.1,30.2,108.9,30.4,108.6,30.4z"/>
	<path class="st1" d="M108.6,35.4H13.5c-0.3,0-0.5-0.2-0.5-0.5l0,0c0-0.3,0.2-0.5,0.5-0.5h95.1c0.3,0,0.5,0.2,0.5,0.5l0,0
		C109.1,35.2,108.9,35.4,108.6,35.4z"/>
	<path class="st1" d="M108.6,40.4H13.5c-0.3,0-0.5-0.2-0.5-0.5l0,0c0-0.3,0.2-0.5,0.5-0.5h95.1c0.3,0,0.5,0.2,0.5,0.5l0,0
		C109.1,40.2,108.9,40.4,108.6,40.4z"/>
</g>
<g>
	<path class="st1" d="M108.5,60.3H13.4c-0.3,0-0.5-0.2-0.5-0.5l0,0c0-0.3,0.2-0.5,0.5-0.5h95.1c0.3,0,0.5,0.2,0.5,0.5l0,0
		C109,60.1,108.8,60.3,108.5,60.3z"/>
	<path class="st1" d="M108.5,65.3H13.4c-0.3,0-0.5-0.2-0.5-0.5l0,0c0-0.3,0.2-0.5,0.5-0.5h95.1c0.3,0,0.5,0.2,0.5,0.5l0,0
		C109,65.1,108.8,65.3,108.5,65.3z"/>
	<path class="st1" d="M108.5,70.3H13.4c-0.3,0-0.5-0.2-0.5-0.5l0,0c0-0.3,0.2-0.5,0.5-0.5h95.1c0.3,0,0.5,0.2,0.5,0.5l0,0
		C109,70.1,108.8,70.3,108.5,70.3z"/>
	<path class="st1" d="M108.5,75.3H13.4c-0.3,0-0.5-0.2-0.5-0.5l0,0c0-0.3,0.2-0.5,0.5-0.5h95.1c0.3,0,0.5,0.2,0.5,0.5l0,0
		C109,75.1,108.8,75.3,108.5,75.3z"/>
	<path class="st1" d="M108.6,80.4H13.5c-0.3,0-0.5-0.2-0.5-0.5l0,0c0-0.3,0.2-0.5,0.5-0.5h95.1c0.3,0,0.5,0.2,0.5,0.5l0,0
		C109.1,80.2,108.9,80.4,108.6,80.4z"/>
	<path class="st1" d="M108.6,85.4H13.5c-0.3,0-0.5-0.2-0.5-0.5l0,0c0-0.3,0.2-0.5,0.5-0.5h95.1c0.3,0,0.5,0.2,0.5,0.5l0,0
		C109.1,85.2,108.9,85.4,108.6,85.4z"/>
	<path class="st1" d="M108.6,90.4H13.5c-0.3,0-0.5-0.2-0.5-0.5l0,0c0-0.3,0.2-0.5,0.5-0.5h95.1c0.3,0,0.5,0.2,0.5,0.5l0,0
		C109.1,90.2,108.9,90.4,108.6,90.4z"/>
</g>
</svg>
