<?xml version="1.0" encoding="utf-8"?>
<!-- Generator: Adobe Illustrator 25.4.1, SVG Export Plug-In . SVG Version: 6.00 Build 0)  -->
<svg version="1.1" id="Layer_1" xmlns="http://www.w3.org/2000/svg" xmlns:xlink="http://www.w3.org/1999/xlink" x="0px" y="0px"
	 viewBox="0 0 122 96" style="enable-background:new 0 0 122 96;" xml:space="preserve">
<style type="text/css">
	.st0{fill:#FFFFFF;}
	.st1{fill:#CACCCE;}
	.st2{opacity:0.5;fill:#CACCCE;enable-background:new    ;}
</style>
<rect x="2" class="st0" width="118" height="96"/>
<rect x="12.9" y="8.8" class="st1" width="28.3" height="82.1"/>
<g>
	<path class="st2" d="M71.5,45.4H47.4c-0.3,0-0.5-0.2-0.5-0.5l0,0c0-0.3,0.2-0.5,0.5-0.5h24.1c0.3,0,0.5,0.2,0.5,0.5l0,0
		C72,45.2,71.7,45.4,71.5,45.4z"/>
	<path class="st2" d="M71.5,50.4H47.4c-0.3,0-0.5-0.2-0.5-0.5l0,0c0-0.3,0.2-0.5,0.5-0.5h24.1c0.3,0,0.5,0.2,0.5,0.5l0,0
		C72,50.2,71.7,50.4,71.5,50.4z"/>
	<path class="st2" d="M71.5,55.4H47.4c-0.3,0-0.5-0.2-0.5-0.5l0,0c0-0.3,0.2-0.5,0.5-0.5h24.1c0.3,0,0.5,0.2,0.5,0.5l0,0
		C72,55.2,71.7,55.4,71.5,55.4z"/>
	<path class="st2" d="M108.4,45.4H84.3c-0.3,0-0.5-0.2-0.5-0.5l0,0c0-0.3,0.2-0.5,0.5-0.5h24.1c0.3,0,0.5,0.2,0.5,0.5l0,0
		C108.9,45.2,108.7,45.4,108.4,45.4z"/>
	<path class="st2" d="M108.4,50.4H84.3c-0.3,0-0.5-0.2-0.5-0.5l0,0c0-0.3,0.2-0.5,0.5-0.5h24.1c0.3,0,0.5,0.2,0.5,0.5l0,0
		C108.9,50.2,108.7,50.4,108.4,50.4z"/>
	<path class="st2" d="M108.4,55.4H84.3c-0.3,0-0.5-0.2-0.5-0.5l0,0c0-0.3,0.2-0.5,0.5-0.5h24.1c0.3,0,0.5,0.2,0.5,0.5l0,0
		C108.9,55.2,108.7,55.4,108.4,55.4z"/>
</g>
<g>
	<path class="st2" d="M108.4,10.3H47.3c-0.3,0-0.5-0.2-0.5-0.5l0,0c0-0.3,0.2-0.5,0.5-0.5h61.1c0.3,0,0.5,0.2,0.5,0.5l0,0
		C108.9,10.1,108.7,10.3,108.4,10.3z"/>
	<path class="st2" d="M108.4,15.3H47.3c-0.3,0-0.5-0.2-0.5-0.5l0,0c0-0.3,0.2-0.5,0.5-0.5h61.1c0.3,0,0.5,0.2,0.5,0.5l0,0
		C108.9,15.1,108.7,15.3,108.4,15.3z"/>
	<path class="st2" d="M108.4,20.3H47.3c-0.3,0-0.5-0.2-0.5-0.5l0,0c0-0.3,0.2-0.5,0.5-0.5h61.1c0.3,0,0.5,0.2,0.5,0.5l0,0
		C108.9,20.1,108.7,20.3,108.4,20.3z"/>
	<path class="st2" d="M108.4,25.3H47.3c-0.3,0-0.5-0.2-0.5-0.5l0,0c0-0.3,0.2-0.5,0.5-0.5h61.1c0.3,0,0.5,0.2,0.5,0.5l0,0
		C108.9,25.1,108.7,25.3,108.4,25.3z"/>
	<path class="st2" d="M108.5,30.4H47.4c-0.3,0-0.5-0.2-0.5-0.5l0,0c0-0.3,0.2-0.5,0.5-0.5h61.1c0.3,0,0.5,0.2,0.5,0.5l0,0
		C109,30.2,108.8,30.4,108.5,30.4z"/>
	<path class="st2" d="M108.5,35.4H47.4c-0.3,0-0.5-0.2-0.5-0.5l0,0c0-0.3,0.2-0.5,0.5-0.5h61.1c0.3,0,0.5,0.2,0.5,0.5l0,0
		C109,35.2,108.8,35.4,108.5,35.4z"/>
	<path class="st2" d="M108.5,40.4H47.4c-0.3,0-0.5-0.2-0.5-0.5l0,0c0-0.3,0.2-0.5,0.5-0.5h61.1c0.3,0,0.5,0.2,0.5,0.5l0,0
		C109,40.2,108.8,40.4,108.5,40.4z"/>
</g>
<g>
	<path class="st2" d="M108.4,60.3H47.3c-0.3,0-0.5-0.2-0.5-0.5l0,0c0-0.3,0.2-0.5,0.5-0.5h61.1c0.3,0,0.5,0.2,0.5,0.5l0,0
		C108.9,60.1,108.7,60.3,108.4,60.3z"/>
	<path class="st2" d="M108.4,65.3H47.3c-0.3,0-0.5-0.2-0.5-0.5l0,0c0-0.3,0.2-0.5,0.5-0.5h61.1c0.3,0,0.5,0.2,0.5,0.5l0,0
		C108.9,65.1,108.7,65.3,108.4,65.3z"/>
	<path class="st2" d="M108.4,70.3H47.3c-0.3,0-0.5-0.2-0.5-0.5l0,0c0-0.3,0.2-0.5,0.5-0.5h61.1c0.3,0,0.5,0.2,0.5,0.5l0,0
		C108.9,70.1,108.7,70.3,108.4,70.3z"/>
	<path class="st2" d="M108.4,75.3H47.3c-0.3,0-0.5-0.2-0.5-0.5l0,0c0-0.3,0.2-0.5,0.5-0.5h61.1c0.3,0,0.5,0.2,0.5,0.5l0,0
		C108.9,75.1,108.7,75.3,108.4,75.3z"/>
	<path class="st2" d="M108.5,80.4H47.4c-0.3,0-0.5-0.2-0.5-0.5l0,0c0-0.3,0.2-0.5,0.5-0.5h61.1c0.3,0,0.5,0.2,0.5,0.5l0,0
		C109,80.2,108.8,80.4,108.5,80.4z"/>
	<path class="st2" d="M108.5,85.4H47.4c-0.3,0-0.5-0.2-0.5-0.5l0,0c0-0.3,0.2-0.5,0.5-0.5h61.1c0.3,0,0.5,0.2,0.5,0.5l0,0
		C109,85.2,108.8,85.4,108.5,85.4z"/>
	<path class="st2" d="M108.5,90.4H47.4c-0.3,0-0.5-0.2-0.5-0.5l0,0c0-0.3,0.2-0.5,0.5-0.5h61.1c0.3,0,0.5,0.2,0.5,0.5l0,0
		C109,90.2,108.8,90.4,108.5,90.4z"/>
</g>
</svg>
