<?xml version="1.0" encoding="utf-8"?>
<!-- Generator: Adobe Illustrator 25.4.1, SVG Export Plug-In . SVG Version: 6.00 Build 0)  -->
<svg version="1.1" id="Layer_1" xmlns="http://www.w3.org/2000/svg" xmlns:xlink="http://www.w3.org/1999/xlink" x="0px" y="0px"
	 viewBox="0 0 122 96" style="enable-background:new 0 0 122 96;" xml:space="preserve">
<style type="text/css">
	.st0{fill:#FFFFFF;}
	.st1{fill:#CACCCE;}
	.st2{opacity:0.5;fill:#CACCCE;enable-background:new    ;}
</style>
<rect x="2" class="st0" width="118" height="96"/>
<g>
	<rect x="80.7" y="8.8" class="st1" width="28.3" height="82.1"/>
</g>
<g>
	<path class="st2" d="M37.6,45.4H13.5c-0.3,0-0.5-0.2-0.5-0.5l0,0c0-0.3,0.2-0.5,0.5-0.5h24.1c0.3,0,0.5,0.2,0.5,0.5l0,0
		C38.1,45.2,37.8,45.4,37.6,45.4z"/>
	<path class="st2" d="M37.6,50.4H13.5c-0.3,0-0.5-0.2-0.5-0.5l0,0c0-0.3,0.2-0.5,0.5-0.5h24.1c0.3,0,0.5,0.2,0.5,0.5l0,0
		C38.1,50.2,37.8,50.4,37.6,50.4z"/>
	<path class="st2" d="M37.6,55.4H13.5c-0.3,0-0.5-0.2-0.5-0.5l0,0c0-0.3,0.2-0.5,0.5-0.5h24.1c0.3,0,0.5,0.2,0.5,0.5l0,0
		C38.1,55.2,37.8,55.4,37.6,55.4z"/>
	<path class="st2" d="M74.5,45.4H50.4c-0.3,0-0.5-0.2-0.5-0.5l0,0c0-0.3,0.2-0.5,0.5-0.5h24.1c0.3,0,0.5,0.2,0.5,0.5l0,0
		C75,45.2,74.8,45.4,74.5,45.4z"/>
	<path class="st2" d="M74.5,50.4H50.4c-0.3,0-0.5-0.2-0.5-0.5l0,0c0-0.3,0.2-0.5,0.5-0.5h24.1c0.3,0,0.5,0.2,0.5,0.5l0,0
		C75,50.2,74.8,50.4,74.5,50.4z"/>
	<path class="st2" d="M74.5,55.4H50.4c-0.3,0-0.5-0.2-0.5-0.5l0,0c0-0.3,0.2-0.5,0.5-0.5h24.1c0.3,0,0.5,0.2,0.5,0.5l0,0
		C75,55.2,74.8,55.4,74.5,55.4z"/>
</g>
<g>
	<path class="st2" d="M74.5,10.3H13.4c-0.3,0-0.5-0.2-0.5-0.5l0,0c0-0.3,0.2-0.5,0.5-0.5h61.1c0.3,0,0.5,0.2,0.5,0.5l0,0
		C75,10.1,74.8,10.3,74.5,10.3z"/>
	<path class="st2" d="M74.5,15.3H13.4c-0.3,0-0.5-0.2-0.5-0.5l0,0c0-0.3,0.2-0.5,0.5-0.5h61.1c0.3,0,0.5,0.2,0.5,0.5l0,0
		C75,15.1,74.8,15.3,74.5,15.3z"/>
	<path class="st2" d="M74.5,20.3H13.4c-0.3,0-0.5-0.2-0.5-0.5l0,0c0-0.3,0.2-0.5,0.5-0.5h61.1c0.3,0,0.5,0.2,0.5,0.5l0,0
		C75,20.1,74.8,20.3,74.5,20.3z"/>
	<path class="st2" d="M74.5,25.3H13.4c-0.3,0-0.5-0.2-0.5-0.5l0,0c0-0.3,0.2-0.5,0.5-0.5h61.1c0.3,0,0.5,0.2,0.5,0.5l0,0
		C75,25.1,74.8,25.3,74.5,25.3z"/>
	<path class="st2" d="M74.6,30.4H13.5c-0.3,0-0.5-0.2-0.5-0.5l0,0c0-0.3,0.2-0.5,0.5-0.5h61.1c0.3,0,0.5,0.2,0.5,0.5l0,0
		C75.1,30.2,74.9,30.4,74.6,30.4z"/>
	<path class="st2" d="M74.6,35.4H13.5c-0.3,0-0.5-0.2-0.5-0.5l0,0c0-0.3,0.2-0.5,0.5-0.5h61.1c0.3,0,0.5,0.2,0.5,0.5l0,0
		C75.1,35.2,74.9,35.4,74.6,35.4z"/>
	<path class="st2" d="M74.6,40.4H13.5c-0.3,0-0.5-0.2-0.5-0.5l0,0c0-0.3,0.2-0.5,0.5-0.5h61.1c0.3,0,0.5,0.2,0.5,0.5l0,0
		C75.1,40.2,74.9,40.4,74.6,40.4z"/>
</g>
<g>
	<path class="st2" d="M74.5,60.3H13.4c-0.3,0-0.5-0.2-0.5-0.5l0,0c0-0.3,0.2-0.5,0.5-0.5h61.1c0.3,0,0.5,0.2,0.5,0.5l0,0
		C75,60.1,74.8,60.3,74.5,60.3z"/>
	<path class="st2" d="M74.5,65.3H13.4c-0.3,0-0.5-0.2-0.5-0.5l0,0c0-0.3,0.2-0.5,0.5-0.5h61.1c0.3,0,0.5,0.2,0.5,0.5l0,0
		C75,65.1,74.8,65.3,74.5,65.3z"/>
	<path class="st2" d="M74.5,70.3H13.4c-0.3,0-0.5-0.2-0.5-0.5l0,0c0-0.3,0.2-0.5,0.5-0.5h61.1c0.3,0,0.5,0.2,0.5,0.5l0,0
		C75,70.1,74.8,70.3,74.5,70.3z"/>
	<path class="st2" d="M74.5,75.3H13.4c-0.3,0-0.5-0.2-0.5-0.5l0,0c0-0.3,0.2-0.5,0.5-0.5h61.1c0.3,0,0.5,0.2,0.5,0.5l0,0
		C75,75.1,74.8,75.3,74.5,75.3z"/>
	<path class="st2" d="M74.6,80.4H13.5c-0.3,0-0.5-0.2-0.5-0.5l0,0c0-0.3,0.2-0.5,0.5-0.5h61.1c0.3,0,0.5,0.2,0.5,0.5l0,0
		C75.1,80.2,74.9,80.4,74.6,80.4z"/>
	<path class="st2" d="M74.6,85.4H13.5c-0.3,0-0.5-0.2-0.5-0.5l0,0c0-0.3,0.2-0.5,0.5-0.5h61.1c0.3,0,0.5,0.2,0.5,0.5l0,0
		C75.1,85.2,74.9,85.4,74.6,85.4z"/>
	<path class="st2" d="M74.6,90.4H13.5c-0.3,0-0.5-0.2-0.5-0.5l0,0c0-0.3,0.2-0.5,0.5-0.5h61.1c0.3,0,0.5,0.2,0.5,0.5l0,0
		C75.1,90.2,74.9,90.4,74.6,90.4z"/>
</g>
</svg>
